<svg width="1200" height="630" viewBox="0 0 1200 630" xmlns="http://www.w3.org/2000/svg">
  <!-- Background -->
  <defs>
    <linearGradient id="bgGradient" x1="0%" y1="0%" x2="100%" y2="100%">
      <stop offset="0%" style="stop-color:#6B4EE6;stop-opacity:1" />
      <stop offset="50%" style="stop-color:#FF9ECD;stop-opacity:1" />
      <stop offset="100%" style="stop-color:#87CEEB;stop-opacity:1" />
    </linearGradient>
  </defs>
  
  <rect width="1200" height="630" fill="url(#bgGradient)"/>
  
  <!-- Decorative elements -->
  <circle cx="100" cy="100" r="50" fill="rgba(255,255,255,0.1)"/>
  <circle cx="1100" cy="530" r="80" fill="rgba(255,255,255,0.1)"/>
  <circle cx="200" cy="500" r="30" fill="rgba(255,255,255,0.1)"/>
  
  <!-- Main content area -->
  <rect x="100" y="100" width="1000" height="430" rx="20" fill="rgba(255,255,255,0.95)"/>
  
  <!-- Logo/Unicorn -->
  <g transform="translate(150, 200)">
    <!-- Unicorn head -->
    <ellipse cx="60" cy="60" rx="50" ry="40" fill="#FFD700"/>
    <!-- Horn -->
    <path d="M60 20 L70 5 L60 0 L50 5 Z" fill="#FFD700"/>
    <!-- Mane -->
    <path d="M10 40 Q30 20 50 40 Q70 60 90 40" stroke="#FF69B4" stroke-width="8" fill="none"/>
    <!-- Eyes -->
    <circle cx="45" cy="50" r="5" fill="#000"/>
    <circle cx="75" cy="50" r="5" fill="#000"/>
  </g>
  
  <!-- Title -->
  <text x="600" y="280" text-anchor="middle" font-family="Arial, sans-serif" font-size="48" font-weight="bold" fill="#2D2D2D">
    KodUnicorn
  </text>
  
  <!-- Subtitle -->
  <text x="600" y="330" text-anchor="middle" font-family="Arial, sans-serif" font-size="24" fill="#666">
    Teknoloji, Bilim ve Eğitim Platformu
  </text>
  
  <!-- Features -->
  <g transform="translate(600, 400)">
    <text x="0" y="0" text-anchor="middle" font-family="Arial, sans-serif" font-size="18" fill="#6B4EE6">
      🧪 STEM Oyunları • 📚 Eğitim • 💻 Teknoloji • 🌟 Oyunlaştırma
    </text>
  </g>
  
  <!-- URL -->
  <text x="600" y="580" text-anchor="middle" font-family="Arial, sans-serif" font-size="16" fill="rgba(255,255,255,0.8)">
    kodunicorn.com.tr
  </text>
</svg>




